<?xml version="1.0" encoding="utf-8"?>
<!-- Generator: Adobe Illustrator 19.1.0, SVG Export Plug-In . SVG Version: 6.00 Build 0)  -->
<svg version="1.1" id="Layer_1" xmlns="http://www.w3.org/2000/svg" xmlns:xlink="http://www.w3.org/1999/xlink" x="0px" y="0px"
	 viewBox="0 0 99.5 50.3" style="enable-background:new 0 0 99.5 50.3;" xml:space="preserve">
<style type="text/css">
	.st0{fill:#FFFFFF;}
</style>
<g>
	<path class="st0" d="M34.5,34c0.6,0,1-0.3,1-0.9v0c0-0.6-0.4-0.9-1-0.9h-0.4V34H34.5z M33.1,31.3h1.4c1.3,0,2,0.7,2,1.8v0
		c0,1-0.8,1.8-2,1.8h-1.4V31.3z"/>
	<polygon class="st0" points="38.7,31.3 38.7,34.9 41.6,34.9 41.6,34 39.7,34 39.7,33.5 41.4,33.5 41.4,32.7 39.7,32.7 39.7,32.1 
		41.6,32.1 41.6,31.3 	"/>
	<path class="st0" d="M43.5,34.3l0.6-0.7c0.4,0.3,0.7,0.4,1.2,0.4c0.3,0,0.4-0.1,0.4-0.2v0c0-0.1-0.1-0.2-0.6-0.3
		c-0.8-0.2-1.4-0.4-1.4-1.1v0c0-0.7,0.5-1.1,1.4-1.1c0.6,0,1.1,0.2,1.5,0.5L46,32.4c-0.3-0.2-0.7-0.4-1-0.4c-0.2,0-0.4,0.1-0.4,0.2
		v0c0,0.2,0.1,0.2,0.6,0.3c0.8,0.2,1.3,0.4,1.3,1.1v0c0,0.7-0.6,1.2-1.4,1.2C44.5,34.9,43.9,34.7,43.5,34.3"/>
	<rect x="48.7" y="31.3" class="st0" width="1" height="3.6"/>
	<path class="st0" d="M51.9,33.1L51.9,33.1c0-1.1,0.8-1.9,1.9-1.9c0.6,0,1.1,0.2,1.5,0.5l-0.6,0.7c-0.3-0.2-0.5-0.3-0.9-0.3
		c-0.5,0-0.9,0.4-0.9,1v0c0,0.6,0.4,1,1,1c0.2,0,0.4-0.1,0.6-0.1v-0.4h-0.7v-0.7h1.6v1.6c-0.4,0.3-0.9,0.6-1.6,0.6
		C52.7,34.9,51.9,34.2,51.9,33.1"/>
	<polygon class="st0" points="60,31.3 60,33.2 58.5,31.3 57.6,31.3 57.6,34.9 58.6,34.9 58.6,32.9 60.1,34.9 61,34.9 61,31.3 	"/>
	<path class="st0" d="M63,34.3l0.6-0.7c0.4,0.3,0.7,0.4,1.2,0.4c0.3,0,0.4-0.1,0.4-0.2v0c0-0.1-0.1-0.2-0.6-0.3
		c-0.8-0.2-1.4-0.4-1.4-1.1v0c0-0.7,0.5-1.1,1.4-1.1c0.6,0,1.1,0.2,1.5,0.5l-0.5,0.7c-0.3-0.2-0.7-0.4-1-0.4c-0.2,0-0.4,0.1-0.4,0.2
		v0c0,0.2,0.1,0.2,0.6,0.3c0.8,0.2,1.3,0.4,1.3,1.1v0c0,0.7-0.6,1.2-1.4,1.2C64,34.9,63.4,34.7,63,34.3"/>
	<polygon class="st0" points="14.8,33.1 29.7,34.1 30.5,33.1 29.7,32.2 	"/>
	<polygon class="st0" points="68.7,33.1 69.5,34.1 84.4,33.1 69.5,32.2 	"/>
	<path class="st0" d="M30.1,22.1c-0.4,0-0.9,0.4-0.9,1.1V27h-1.9l-0.7-1.6c-0.7,1-2.1,1.9-4.3,1.9c-3.5,0-6.7-2.4-6.7-7.1
		c0-4.7,3.4-7,7-7c1.7,0,2.6,0.6,3.2,0.6c0.4,0,0.5-0.2,0.5-0.6h2.2v5.5h-2.5v-0.5c0-1.6-0.9-2.7-2.5-2.7c-1.6,0-2.7,1-2.7,4.6
		c0,3.9,0.7,5,2.2,5c1.1,0,1.8-0.7,1.8-1.6v-0.5c0-0.5-0.2-0.8-0.7-0.8h-1.5v-2h7.9v1.9H30.1z"/>
	<path class="st0" d="M46.8,15.4c-0.6,0-0.9,0.5-0.9,1.1v4.8c0,4.4-2.3,5.8-6.1,5.8c-4.1,0-6.7-1.1-6.7-5.6v-5.2c0-0.6-0.2-1-1-1
		h-0.5v-2h8v2h-0.9c-0.6,0-0.9,0.3-0.9,1v5.7c0,1.8,1.2,2.5,3,2.5c1.7,0,2.7-1,2.7-2.6v-5.5c0-0.6-0.3-1.1-1-1.1h-0.8v-2h6v2H46.8z"
		/>
	<path class="st0" d="M64.2,15.4c-0.4,0-0.8,0.3-1,0.7l-3.8,6.1v1.6c0,0.7,0.4,1.1,1.1,1.1h1.3v2h-9.5v-2h1.3c0.6,0,1.1-0.5,1.1-1.1
		v-1.7l-3.7-5.9c-0.3-0.5-0.6-0.8-1.2-0.8h-0.3v-2h8v2h-0.7c-0.7,0-0.8,0.5-0.5,1.1l1.9,3.1l2-3.3c0.3-0.5,0-1-0.6-1h-0.6v-2H65v2
		H64.2z"/>
	<path class="st0" d="M65.8,19v-1.4c0.8,0,1.7-0.3,1.7-0.8c0-0.1-0.3-0.3-0.5-0.5c-0.6-0.4-0.9-0.8-0.9-1.4c0-1,0.7-1.7,1.9-1.7
		c1.2,0,2.2,1,2.2,2.3C70.1,17.7,68.5,19,65.8,19"/>
	<path class="st0" d="M77.7,27.2c-2.2,0-3.5-0.7-4.2-0.7c-0.4,0-0.5,0.3-0.5,0.5H71v-5.2h2.2v0.4c0,1.9,1.6,2.7,3.5,2.7
		c1.8,0,2.7-0.5,2.7-1.3c0-0.8-0.4-1.1-2.3-1.5l-2.9-0.6c-1.8-0.4-3.2-1.7-3.2-3.8c0-3,2.8-4.4,5.9-4.4c2,0,2.7,0.7,3.3,0.7
		c0.5,0,0.7-0.2,0.7-0.5h2v4.8h-2.3v-0.4c0-1.6-1.3-2.3-3-2.3c-1.4,0-2.4,0.2-2.4,1c0,0.6,0.3,1,1.9,1.3l3,0.7
		c1.9,0.4,3.5,1.5,3.5,3.8C83.5,25.9,80.6,27.2,77.7,27.2"/>
</g>
</svg>
